# xmcd
#
# Track frame offsets:
#	150
#	16667
#	38581
#	62564
#	79001
#	92675
#	113208
#	126669
#	145301
#	172953
#
# Disc length: 2543 seconds
#
# Revision: 0
# Processed by: cddbd v1.5.1PL0 Copyright (c) Steve Scherf et al.
# Submitted via: EasyCDDAExtractor 8.2.1.1
#
DISCID=7a09ed0a
DTITLE=Bob Dylan and The Band - Before The Flood CD2
DYEAR=1900
DGENRE=Folk-Rock
TTITLE0=Don't Think Twice, It's Alright
TTITLE1=Just Like A Woman
TTITLE2=It's Alright, Ma
TTITLE3=The Shape I'm In
TTITLE4=When You Awake
TTITLE5=The Weight
TTITLE6=All Along The Watchtower
TTITLE7=Highway 61 Revisited
TTITLE8=Like A Rolling Stone
TTITLE9=Blowin' In The Wind
EXTD=
EXTT0=
EXTT1=
EXTT2=
EXTT3=
EXTT4=
EXTT5=
EXTT6=
EXTT7=
EXTT8=
EXTT9=
PLAYORDER=
